PathFileType	4	(X/Y/Z)	../motion_lab\static\Static03\task.trc
DataRate	CameraRate	NumFrames	NumMarkers	Units	OrigDataRate	OrigDataStartFrame	OrigNumFrames
200.000000	200.000000	4	40	mm	200.000000	333	445
Frame#	Time	C7			RBAK			CLAV			STRN			T10			RASI			RPSI			LPSI			LASI			PE01			PE02			PE03			RTH1			RTH2			RTH3			RKNE			RMKNE			RTB1			RTB2			RTB3			RANK			RMMA			RHEE			RD5M			RTOE			LTH1			LTH2			LTH3			LKNE			LMKNE			LTB1			LTB2			LTB3			LANK			LMMA			LHEE			LTOE			LD5M			LGT			RGT			
		X1	Y1	Z1	X2	Y2	Z2	X3	Y3	Z3	X4	Y4	Z4	X5	Y5	Z5	X6	Y6	Z6	X7	Y7	Z7	X8	Y8	Z8	X9	Y9	Z9	X10	Y10	Z10	X11	Y11	Z11	X12	Y12	Z12	X13	Y13	Z13	X14	Y14	Z14	X15	Y15	Z15	X16	Y16	Z16	X17	Y17	Z17	X18	Y18	Z18	X19	Y19	Z19	X20	Y20	Z20	X21	Y21	Z21	X22	Y22	Z22	X23	Y23	Z23	X24	Y24	Z24	X25	Y25	Z25	X26	Y26	Z26	X27	Y27	Z27	X28	Y28	Z28	X29	Y29	Z29	X30	Y30	Z30	X31	Y31	Z31	X32	Y32	Z32	X33	Y33	Z33	X34	Y34	Z34	X35	Y35	Z35	X36	Y36	Z36	X37	Y37	Z37	X38	Y38	Z38	X39	Y39	Z39	X40	Y40	Z40	

334	1.665	-10.13837718963623	1353.85791015625	289.2583923339845	72.62617492675784	1256.857788085938	332.710418701172	-6.081086158752445	1288.828369140625	152.1511230468751	-0.3034040331840516	1108.110107421875	64.53321838378909	4.703538894653322	1054.8056640625	278.4066772460939	118.1200561523438	885.473266601563	103.4671173095704	56.48560333251956	921.4359741210942	300.4215698242189	-28.84950065612794	918.2467651367192	297.5872497558595	-104.445297241211	885.142700195313	94.79344177246097	11.20787620544434	954.8378295898442	287.2412719726564	35.70722579956056	898.719116210938	313.0542907714845	-15.08411121368409	896.8215332031255	309.4514465332032	165.2521362304688	598.369812011719	210.2623443603517	154.2352447509766	519.490417480469	202.8984527587892	159.0327453613282	570.6331176757815	168.6903076171876	144.193588256836	452.7944030761721	208.2993927001954	32.69282531738283	446.4302978515627	192.8577117919923	161.4769439697266	298.8507385253907	226.3916931152345	167.2542419433594	263.0376892089845	275.9935607910157	163.2162628173829	222.3771209716798	246.0813751220704	152.8052215576172	59.37567901611331	300.2114257812501	79.15278625488284	76.83782958984378	267.2871704101564	103.1608657836915	27.90707015991212	333.8824462890626	200.2922515869142	14.01262664794923	199.6620178222657	155.1972198486329	30.44489479064943	151.4578552246094	-167.5184631347657	622.4832763671877	186.3114471435547	-158.5499420166016	570.785095214844	216.705047607422	-164.4371948242188	597.4597167968752	142.7717590332032	-148.4354400634766	445.0642700195315	190.0188751220704	-46.29418945312501	437.4143981933596	178.262191772461	-183.9162750244141	299.5465393066407	267.1882934570314	-184.088363647461	220.2282562255861	274.5919189453126	-183.2810211181641	246.9026031494142	233.0645751953126	-185.8244781494141	70.52049255371097	252.3825073242189	-106.0265045166016	74.88111114501956	239.1000366210939	-148.8646240234376	35.95394134521486	303.977264404297	-176.9445953369141	29.61673164367677	111.4354324340821	-223.6321258544923	18.10422515869141	162.2023010253907	-193.6029357910157	788.8339233398442	176.3610839843751	202.5805816650392	795.856567382813	181.6994934082032	
335	1.67	-10.13347148895264	1353.858764648438	289.2461242675782	72.61428070068362	1256.865112304688	332.7116088867189	-6.072453022003177	1288.826171875	152.1449584960938	-0.3277065753936769	1108.099609375	64.53762817382815	4.696579933166506	1054.833862304688	278.395965576172	118.1150207519532	885.4633178710942	103.4825668334962	56.4797172546387	921.4104003906255	300.4211730957032	-28.85188484191896	918.2516479492192	297.5874328613282	-104.4578094482422	885.1321411132817	94.79007720947268	11.17924594879151	954.8713989257817	287.2401428222657	35.71979904174806	898.6838989257817	313.027557373047	-15.0987024307251	896.835327148438	309.4416809082032	165.2533569335938	598.391540527344	210.2490081787111	154.2602539062501	519.4794921875002	202.8808593750001	159.0493316650391	570.6462402343752	168.6716918945313	144.1972198486329	452.798522949219	208.2849884033204	32.69762039184572	446.4450988769534	192.8420867919923	161.4685211181641	298.9437561035157	226.370819091797	167.2632141113282	263.0408325195314	275.9908447265626	163.2598724365235	222.3951416015626	246.0743255615236	152.8108215332032	59.37540817260745	300.2098083496095	79.18424987792972	76.88381195068362	267.2793579101564	103.1655578613282	27.8924961090088	333.875946044922	200.2842102050782	14.00825881958009	199.6681213378907	155.2045288085938	30.45130920410158	151.4610900878907	-167.5253143310547	622.4847412109377	186.3052062988282	-158.5511932373047	570.7588500976565	216.7116088867189	-164.5885772705079	597.4024047851565	142.6996307373047	-148.4444427490235	445.0603637695315	190.0127258300782	-46.89498138427736	436.7533264160159	178.8694000244141	-183.5869445800782	299.6331787109376	267.0010070800782	-184.0886383056641	220.2406616210939	274.5938110351564	-183.2927703857422	246.8846435546876	233.061004638672	-185.8233489990235	70.51120758056643	252.3723449707032	-106.0256881713868	74.8785095214844	239.0966796875001	-148.8670501708985	35.96507644653322	303.9853515625001	-176.9410400390626	29.60947990417482	111.4272155761719	-223.6364288330079	18.07974815368653	162.1968536376954	-193.6027069091798	788.8210449218755	176.3591766357422	202.5771026611329	795.876831054688	181.6968383789063	
336	1.675	-10.11679267883301	1353.873901367188	289.2351989746095	72.62490081787112	1256.858520507813	332.6984252929689	-6.048328399658207	1288.83154296875	152.1374511718751	-0.3318745195865632	1108.097778320313	64.55149078369143	4.686976432800295	1054.834350585938	278.3968811035157	118.1053085327149	885.4649047851567	103.4890441894532	56.47548294067386	921.4280395507817	300.4208068847657	-28.81307792663576	918.4445190429692	297.7731933593751	-104.4580459594727	885.1277465820317	94.78318786621097	11.18811702728272	954.8842163085942	287.2351074218751	35.54827117919923	898.0375366210942	312.7102355957032	-15.09393215179444	896.8294067382817	309.4448242187501	165.2684326171876	598.4004516601565	210.2357330322267	154.2501373291016	519.5079345703127	202.855194091797	159.0542297363282	570.6562500000002	168.6602172851563	144.1909484863282	452.7810058593752	208.292449951172	32.66881942749025	446.4270935058596	192.8515777587892	161.5236053466797	298.8602905273439	226.3180084228517	167.2544708251954	263.0342712402345	276.0134277343751	163.2471008300782	222.4924621582032	246.0663604736329	152.8182373046876	59.39195632934573	300.1987915039064	79.17641448974612	76.88172912597659	267.2823791503907	103.1594314575196	27.88125610351564	333.8721008300782	200.2804565429689	14.00857830047608	199.6716461181642	155.1996765136719	30.44319915771486	151.4660186767579	-167.4808044433594	622.5396118164065	186.2916717529297	-158.5510559082032	570.7505493164065	216.7164001464845	-164.4586944580079	597.4642333984377	142.7706298828126	-148.4573211669922	445.0529785156252	190.0018157958985	-46.32863616943361	437.3312683105471	178.3614654541016	-183.5698394775391	299.6431579589845	266.988250732422	-184.0918731689454	220.2350463867189	274.5938110351564	-183.293930053711	246.8997497558595	233.0624847412111	-185.8212890625001	70.51405334472659	252.3748474121095	-106.0176010131837	74.87752532958987	239.1009979248048	-148.8533935546876	35.95347595214845	303.9681396484376	-176.9436187744141	29.61588287353517	111.4248275756837	-223.6231384277345	18.08141517639161	162.1885681152344	-193.5929107666017	788.8119506835942	176.3574523925782	202.5958099365236	795.8865356445317	181.6737670898438	
337	1.68	-10.29649162292481	1353.5771484375	289.2149658203126	72.62321472167972	1256.8544921875	332.6963806152345	-6.059319019317631	1288.828735351563	152.1388702392579	-0.319271892309189	1108.093627929688	64.5561218261719	4.670048713684084	1054.8388671875	278.3937377929689	118.1072540283204	885.4385375976567	103.4853439331055	56.47304534912112	921.4345703125005	300.4138488769532	-28.85234451293947	918.2495117187505	297.596405029297	-104.4582824707032	885.1392211914067	94.78034210205081	11.17982482910157	954.8898315429692	287.2185058593751	35.69398117065431	898.673706054688	312.9973754882814	-15.09382438659669	896.8556518554692	309.4340209960939	165.267074584961	598.3785400390627	210.2381286621095	154.2686309814454	519.488952636719	202.8584594726564	159.0558166503907	570.665466308594	168.6451110839844	144.1983489990235	452.795593261719	208.2831878662111	32.67587661743165	446.4336853027346	192.8521118164064	161.4736938476563	299.015350341797	226.3253173828126	167.2488250732422	263.0240783691407	276.0102539062501	163.2543029785157	222.3395080566407	246.1126556396486	152.8111572265626	59.36731338500979	300.2196350097657	79.17700195312503	76.86584472656253	267.275115966797	103.182228088379	27.88793945312501	333.8804931640626	200.284637451172	14.01537322998048	199.6526031494142	155.1931152343751	30.43989181518556	151.4681396484376	-167.5198364257813	622.4776000976565	186.3229675292969	-158.5559387207032	570.7576904296877	216.7046051025392	-164.4314575195313	597.4692382812502	142.7711334228516	-148.4623413085938	445.047790527344	189.9951782226563	-46.35204315185548	437.3395690917971	178.3224182128907	-183.5582580566407	299.6064758300782	266.9944152832032	-184.0907135009766	220.2338104248048	274.5872497558595	-183.3098754882813	246.8810424804689	233.0681304931642	-185.8261413574219	70.53382873535159	252.3809814453126	-106.0126419067383	74.89731597900393	239.0879364013673	-148.8704223632813	35.96177673339845	303.9779357910157	-176.9308166503907	29.61459732055665	111.413917541504	-223.6410217285157	18.09535598754884	162.2050170898438	-193.6015777587892	788.817260742188	176.3536987304688	202.5858001708986	795.9177856445317	181.6514892578126	
